<?xml version="1.0" encoding="UTF-8"?>
<svg width="133px" height="48px" viewBox="0 0 133 48" version="1.1" xmlns="http://www.w3.org/2000/svg" xmlns:xlink="http://www.w3.org/1999/xlink">
    <!-- Generator: Sketch 46.2 (44496) - http://www.bohemiancoding.com/sketch -->
    <title>Group 8</title>
    <desc>Created with Sketch.</desc>
    <defs></defs>
    <g id="logos" stroke="none" stroke-width="1" fill="none" fill-rule="evenodd">
        <g id="01-Sites-01-Site-List-(Full-Web)" transform="translate(-459.000000, -50.000000)">
            <g id="Group-8" transform="translate(459.000000, 50.000000)">
                <g id="Group-3-Copy">
                    <path d="M18,38 C13.582,38 10,34.418 10,30 C10,25.582 13.582,22 18,22 C22.418,22 26,25.582 26,30 C26,34.418 22.418,38 18,38 M18,12 C8.06,12 0,20.06 0,30 C0,39.94 8.06,48 18,48 C27.94,48 36,39.94 36,30 C36,20.06 27.94,12 18,12" id="Page-1" fill="#2585A3"></path>
                    <path d="M25.991,30.79 C25.984,30.746 25.974,30.702 25.967,30.658 C25.631,34.768 22.196,38 18,38 C13.581,38 10,34.418 10,30 C10,25.582 13.581,22 18,22 C19.348,22 20.616,22.337 21.73,22.926 C15.101,19.355 0,19.135 0,30 C0,39.94 8.06,48 18,48 C27.94,48 36,39.94 36,30 C36,29.945 36,22 35.995,18 C36.004,24 31.6,30.222 25.991,30.79 Z" id="Fill-3" fill="#3ABEB9"></path>
                    <path d="M26,5 L26,29 C26,29.095 25.995,29.926 26,30 C26,34.418 22.418,38 18,38 C33.04,38 36,28 36,25 L36,5 C36,2.23999977 33.7596098,0 31,0 C28.2395902,0 26,2.23999977 26,5 Z" id="Fill-4" fill="#1BE2CA"></path>
                </g>
                <path d="M46.816,34.616 C47.344,36.224 48.808,38.312 52.072,38.312 C55.216,38.312 57.16,36.248 57.16,33.608 C57.16,28.232 49.264,29.024 49.264,25.184 C49.264,23.792 50.248,22.664 52.096,22.664 C53.944,22.664 54.856,23.936 55.24,24.776 L56.872,24.104 C56.464,22.976 55.12,20.888 52.12,20.888 C49.144,20.888 47.32,22.784 47.32,25.184 C47.32,30.608 55.192,29.528 55.192,33.728 C55.192,35.48 53.92,36.512 52.144,36.512 C49.936,36.512 48.928,35.192 48.472,33.896 L46.816,34.616 Z M60.04,38 L60.04,21.2 L64.648,21.2 C67.696,21.2 69.664,23 69.664,26.048 C69.664,29.072 67.6,30.968 64.648,30.968 L61.984,30.968 L61.984,38 L60.04,38 Z M61.984,29.24 L64.48,29.24 C66.496,29.24 67.672,27.992 67.672,26.048 C67.672,24.128 66.496,22.928 64.48,22.928 L61.984,22.928 L61.984,29.24 Z" id="SPdigital-Copy" fill="#9BA6AA"></path>
                <path d="M83.392,20.648 L83.392,38 L81.544,38 L81.544,36.032 C81.232,36.488 79.936,38.312 77.224,38.312 C73.648,38.312 71.128,35.6 71.128,31.784 C71.128,27.944 73.528,25.208 77.08,25.208 C79.672,25.208 81.112,26.888 81.472,27.536 L81.472,20.648 L83.392,20.648 Z M81.544,31.808 C81.544,28.712 79.624,26.936 77.296,26.936 C74.848,26.936 73.072,28.952 73.072,31.808 C73.072,34.712 74.92,36.608 77.32,36.608 C79.936,36.608 81.544,34.424 81.544,31.808 Z M86.656,38 L88.552,38 L88.552,25.52 L86.656,25.52 L86.656,38 Z M86.296,22.304 C86.296,23.048 86.872,23.624 87.592,23.624 C88.336,23.624 88.912,23.048 88.912,22.304 C88.912,21.584 88.336,21.008 87.592,21.008 C86.872,21.008 86.296,21.584 86.296,22.304 Z M92.488,41.36 L93.16,39.872 C93.64,40.16 95.128,40.904 96.928,40.904 C99.304,40.904 101.32,39.92 101.32,37.136 L101.32,36.032 C101.032,36.488 99.736,38.312 97,38.312 C93.424,38.312 90.976,35.6 90.976,31.784 C90.976,27.944 93.448,25.208 96.976,25.208 C99.568,25.208 100.984,26.864 101.392,27.536 L101.392,25.52 L103.216,25.52 L103.216,36.272 C103.216,41 100.552,42.608 96.952,42.608 C95.32,42.608 93.568,42.032 92.488,41.36 Z M101.392,31.784 C101.392,28.76 99.496,26.936 97.12,26.936 C94.696,26.936 92.896,28.928 92.896,31.784 C92.896,34.688 94.768,36.584 97.168,36.584 C99.736,36.584 101.392,34.472 101.392,31.784 Z M106.384,38 L108.28,38 L108.28,25.52 L106.384,25.52 L106.384,38 Z M106.024,22.304 C106.024,23.048 106.6,23.624 107.32,23.624 C108.064,23.624 108.64,23.048 108.64,22.304 C108.64,21.584 108.064,21.008 107.32,21.008 C106.6,21.008 106.024,21.584 106.024,22.304 Z M111.688,25.52 L110.224,25.52 L110.224,27.128 L111.688,27.128 L111.688,33.728 C111.688,36.536 112.768,38.168 115.264,38.168 C115.912,38.168 116.416,38.096 116.416,38.096 L116.416,36.416 C116.416,36.416 116.128,36.44 115.888,36.44 C114.256,36.44 113.584,35.888 113.584,33.56 L113.584,27.128 L116.32,27.128 L116.32,25.52 L113.584,25.52 L113.584,22.904 L111.688,22.904 L111.688,25.52 Z M117.808,34.16 C117.808,31.784 119.8,30.056 122.608,30.056 C124.192,30.056 125.392,30.656 125.896,31.184 L125.896,29.648 C125.896,27.896 124.72,26.888 122.872,26.888 C121.336,26.888 120.088,27.44 119.2,27.968 L118.432,26.576 C119.272,26.048 120.928,25.208 123.04,25.208 C126.448,25.208 127.792,27.104 127.792,29.768 L127.792,38 L126.16,38 L125.944,36.944 C125.296,37.688 124.24,38.312 122.56,38.312 C119.824,38.312 117.808,36.584 117.808,34.16 Z M119.728,34.136 C119.728,35.576 120.952,36.728 122.872,36.728 C124.696,36.728 125.968,35.648 125.968,34.136 C125.968,32.576 124.72,31.568 122.848,31.568 C120.952,31.568 119.728,32.672 119.728,34.136 Z M130.864,38 L132.76,38 L132.76,20.648 L130.864,20.648 L130.864,38 Z" id="SPdigital-Copy" fill="#FFFFFF"></path>
            </g>
        </g>
    </g>
</svg>